<mxfile host="app.diagrams.net" agent="Mozilla/5.0 (Windows NT 10.0; Win64; x64) AppleWebKit/537.36 (KHTML, like Gecko) Chrome/132.0.0.0 Safari/537.36 OPR/117.0.0.0" version="26.1.1">
  <diagram name="Page-1" id="t7mp8thndAIZZq_46Ynx">
    <mxGraphModel dx="2422" dy="844" grid="1" gridSize="10" guides="1" tooltips="1" connect="1" arrows="1" fold="1" page="1" pageScale="1" pageWidth="850" pageHeight="1100" math="0" shadow="0">
      <root>
        <mxCell id="0" />
        <mxCell id="1" parent="0" />
        <mxCell id="rERKmSlaa6cY_zSiYhxS-1" value="&lt;font style=&quot;font-size: 20px;&quot;&gt;&lt;font style=&quot;&quot;&gt;Quản&lt;/font&gt;&amp;nbsp;lý bán mì cay online&lt;/font&gt;" style="rounded=0;whiteSpace=wrap;html=1;" parent="1" vertex="1">
          <mxGeometry x="467.5" y="160" width="245" height="60" as="geometry" />
        </mxCell>
        <mxCell id="rERKmSlaa6cY_zSiYhxS-2" value="&lt;span style=&quot;font-size: 20px;&quot;&gt;Quản lý khách hàng&lt;/span&gt;" style="rounded=0;whiteSpace=wrap;html=1;" parent="1" vertex="1">
          <mxGeometry x="-10" y="280" width="200" height="60" as="geometry" />
        </mxCell>
        <mxCell id="rERKmSlaa6cY_zSiYhxS-4" value="&lt;span style=&quot;font-size: 20px;&quot;&gt;Quản lý nhân viên&lt;/span&gt;" style="rounded=0;whiteSpace=wrap;html=1;" parent="1" vertex="1">
          <mxGeometry x="240" y="280" width="200" height="60" as="geometry" />
        </mxCell>
        <mxCell id="rERKmSlaa6cY_zSiYhxS-5" value="&lt;span style=&quot;font-size: 20px;&quot;&gt;Báo cáo thống kê&lt;/span&gt;" style="rounded=1;whiteSpace=wrap;html=1;" parent="1" vertex="1">
          <mxGeometry x="490" y="280" width="200" height="60" as="geometry" />
        </mxCell>
        <mxCell id="rERKmSlaa6cY_zSiYhxS-6" value="&lt;span style=&quot;font-size: 20px;&quot;&gt;Quản lý phản hồi, đánh giá&lt;/span&gt;" style="rounded=1;whiteSpace=wrap;html=1;" parent="1" vertex="1">
          <mxGeometry x="740" y="280" width="200" height="60" as="geometry" />
        </mxCell>
        <mxCell id="g5ewoE6nvLTf_8WwbgQn-1" value="&lt;span style=&quot;font-size: 20px;&quot;&gt;Thống kê số lượng sản phẩm&lt;/span&gt;" style="rounded=1;whiteSpace=wrap;html=1;" parent="1" vertex="1">
          <mxGeometry x="580" y="380" width="120" height="100" as="geometry" />
        </mxCell>
        <mxCell id="g5ewoE6nvLTf_8WwbgQn-2" value="&lt;span style=&quot;font-size: 20px;&quot;&gt;Thống kê doanh thu&lt;/span&gt;" style="rounded=1;whiteSpace=wrap;html=1;" parent="1" vertex="1">
          <mxGeometry x="580" y="510" width="120" height="100" as="geometry" />
        </mxCell>
        <mxCell id="g5ewoE6nvLTf_8WwbgQn-3" value="&lt;span style=&quot;font-size: 20px;&quot;&gt;Thống kê đơn hàng&lt;/span&gt;" style="rounded=1;whiteSpace=wrap;html=1;" parent="1" vertex="1">
          <mxGeometry x="580" y="640" width="120" height="100" as="geometry" />
        </mxCell>
        <mxCell id="g5ewoE6nvLTf_8WwbgQn-5" value="&lt;span style=&quot;font-size: 20px;&quot;&gt;Đăng ký&lt;/span&gt;" style="rounded=0;whiteSpace=wrap;html=1;" parent="1" vertex="1">
          <mxGeometry x="80" y="380" width="120" height="100" as="geometry" />
        </mxCell>
        <mxCell id="g5ewoE6nvLTf_8WwbgQn-7" value="&lt;span style=&quot;font-size: 20px;&quot;&gt;Đăng nhập&lt;/span&gt;" style="rounded=0;whiteSpace=wrap;html=1;" parent="1" vertex="1">
          <mxGeometry x="80" y="510" width="120" height="100" as="geometry" />
        </mxCell>
        <mxCell id="g5ewoE6nvLTf_8WwbgQn-8" value="&lt;span style=&quot;font-size: 20px;&quot;&gt;Cập nhập thông tin cá nhân&lt;/span&gt;" style="rounded=0;whiteSpace=wrap;html=1;" parent="1" vertex="1">
          <mxGeometry x="80" y="640" width="120" height="100" as="geometry" />
        </mxCell>
        <mxCell id="g5ewoE6nvLTf_8WwbgQn-9" value="&lt;span style=&quot;font-size: 20px;&quot;&gt;Đổi mật khẩu&lt;/span&gt;" style="rounded=0;whiteSpace=wrap;html=1;" parent="1" vertex="1">
          <mxGeometry x="80" y="770" width="120" height="100" as="geometry" />
        </mxCell>
        <mxCell id="g5ewoE6nvLTf_8WwbgQn-10" value="&lt;span style=&quot;font-size: 20px;&quot;&gt;Đăng nhập&lt;/span&gt;" style="rounded=0;whiteSpace=wrap;html=1;" parent="1" vertex="1">
          <mxGeometry x="330" y="380" width="120" height="100" as="geometry" />
        </mxCell>
        <mxCell id="g5ewoE6nvLTf_8WwbgQn-11" value="&lt;span style=&quot;font-size: 20px;&quot;&gt;Xác nhận đơn hàng&lt;/span&gt;" style="rounded=0;whiteSpace=wrap;html=1;" parent="1" vertex="1">
          <mxGeometry x="330" y="510" width="120" height="100" as="geometry" />
        </mxCell>
        <mxCell id="g5ewoE6nvLTf_8WwbgQn-13" value="&lt;span style=&quot;font-size: 20px;&quot;&gt;Khách hàng đánh giá món ăn&lt;/span&gt;" style="rounded=1;whiteSpace=wrap;html=1;" parent="1" vertex="1">
          <mxGeometry x="830" y="380" width="120" height="100" as="geometry" />
        </mxCell>
        <mxCell id="g5ewoE6nvLTf_8WwbgQn-14" value="&lt;span style=&quot;font-size: 20px;&quot;&gt;Quản lý phản hồi, xóa các phản hồi không phù hợp&lt;/span&gt;" style="rounded=1;whiteSpace=wrap;html=1;" parent="1" vertex="1">
          <mxGeometry x="830" y="510" width="120" height="150" as="geometry" />
        </mxCell>
        <mxCell id="g5ewoE6nvLTf_8WwbgQn-17" value="&lt;span style=&quot;font-size: 20px;&quot;&gt;Quản lý đơn hàng&lt;/span&gt;" style="rounded=1;whiteSpace=wrap;html=1;" parent="1" vertex="1">
          <mxGeometry x="990" y="280" width="200" height="60" as="geometry" />
        </mxCell>
        <mxCell id="g5ewoE6nvLTf_8WwbgQn-18" value="&lt;span style=&quot;font-size: 20px;&quot;&gt;Đặt hàng vào giỏ hàng&lt;/span&gt;" style="rounded=1;whiteSpace=wrap;html=1;" parent="1" vertex="1">
          <mxGeometry x="1080" y="380" width="120" height="100" as="geometry" />
        </mxCell>
        <mxCell id="g5ewoE6nvLTf_8WwbgQn-19" value="&lt;span style=&quot;font-size: 20px;&quot;&gt;Thanh toán&lt;/span&gt;" style="rounded=1;whiteSpace=wrap;html=1;" parent="1" vertex="1">
          <mxGeometry x="1080" y="510" width="120" height="100" as="geometry" />
        </mxCell>
        <mxCell id="g5ewoE6nvLTf_8WwbgQn-20" value="&lt;span style=&quot;font-size: 20px;&quot;&gt;Các mã khuyến mãi&lt;/span&gt;" style="rounded=1;whiteSpace=wrap;html=1;" parent="1" vertex="1">
          <mxGeometry x="1080" y="640" width="120" height="100" as="geometry" />
        </mxCell>
        <mxCell id="g5ewoE6nvLTf_8WwbgQn-46" value="" style="endArrow=none;html=1;rounded=0;edgeStyle=orthogonalEdgeStyle;curved=0;startFill=0;" parent="1" source="rERKmSlaa6cY_zSiYhxS-1" edge="1">
          <mxGeometry width="50" height="50" relative="1" as="geometry">
            <mxPoint x="610" y="350" as="sourcePoint" />
            <mxPoint x="90" y="240" as="targetPoint" />
            <Array as="points">
              <mxPoint x="590" y="240" />
              <mxPoint x="90" y="240" />
            </Array>
          </mxGeometry>
        </mxCell>
        <mxCell id="g5ewoE6nvLTf_8WwbgQn-49" value="" style="endArrow=classic;html=1;rounded=0;" parent="1" target="rERKmSlaa6cY_zSiYhxS-4" edge="1">
          <mxGeometry width="50" height="50" relative="1" as="geometry">
            <mxPoint x="340" y="240" as="sourcePoint" />
            <mxPoint x="330" y="240" as="targetPoint" />
          </mxGeometry>
        </mxCell>
        <mxCell id="g5ewoE6nvLTf_8WwbgQn-50" value="" style="endArrow=classic;html=1;rounded=0;" parent="1" target="rERKmSlaa6cY_zSiYhxS-5" edge="1" source="rERKmSlaa6cY_zSiYhxS-1">
          <mxGeometry width="50" height="50" relative="1" as="geometry">
            <mxPoint x="590" y="240" as="sourcePoint" />
            <mxPoint x="350" y="290" as="targetPoint" />
          </mxGeometry>
        </mxCell>
        <mxCell id="g5ewoE6nvLTf_8WwbgQn-51" value="" style="endArrow=classic;html=1;rounded=0;edgeStyle=orthogonalEdgeStyle;curved=0;" parent="1" source="rERKmSlaa6cY_zSiYhxS-1" target="g5ewoE6nvLTf_8WwbgQn-17" edge="1">
          <mxGeometry width="50" height="50" relative="1" as="geometry">
            <mxPoint x="610" y="350" as="sourcePoint" />
            <mxPoint x="660" y="300" as="targetPoint" />
            <Array as="points">
              <mxPoint x="590" y="240" />
              <mxPoint x="1090" y="240" />
            </Array>
          </mxGeometry>
        </mxCell>
        <mxCell id="g5ewoE6nvLTf_8WwbgQn-52" value="" style="endArrow=classic;html=1;rounded=0;" parent="1" target="rERKmSlaa6cY_zSiYhxS-6" edge="1">
          <mxGeometry width="50" height="50" relative="1" as="geometry">
            <mxPoint x="840" y="240" as="sourcePoint" />
            <mxPoint x="660" y="300" as="targetPoint" />
          </mxGeometry>
        </mxCell>
        <mxCell id="g5ewoE6nvLTf_8WwbgQn-53" value="" style="endArrow=none;html=1;rounded=1;edgeStyle=orthogonalEdgeStyle;startFill=0;curved=0;" parent="1" source="rERKmSlaa6cY_zSiYhxS-2" target="g5ewoE6nvLTf_8WwbgQn-9" edge="1">
          <mxGeometry width="50" height="50" relative="1" as="geometry">
            <mxPoint x="40" y="370" as="sourcePoint" />
            <mxPoint x="660" y="300" as="targetPoint" />
            <Array as="points">
              <mxPoint x="40" y="820" />
            </Array>
          </mxGeometry>
        </mxCell>
        <mxCell id="g5ewoE6nvLTf_8WwbgQn-54" value="" style="endArrow=none;html=1;rounded=1;curved=0;" parent="1" source="g5ewoE6nvLTf_8WwbgQn-8" edge="1">
          <mxGeometry width="50" height="50" relative="1" as="geometry">
            <mxPoint x="230" y="650" as="sourcePoint" />
            <mxPoint x="40" y="690" as="targetPoint" />
          </mxGeometry>
        </mxCell>
        <mxCell id="g5ewoE6nvLTf_8WwbgQn-55" value="" style="endArrow=none;html=1;rounded=1;curved=0;" parent="1" target="g5ewoE6nvLTf_8WwbgQn-7" edge="1">
          <mxGeometry width="50" height="50" relative="1" as="geometry">
            <mxPoint x="40" y="560" as="sourcePoint" />
            <mxPoint x="280" y="600" as="targetPoint" />
          </mxGeometry>
        </mxCell>
        <mxCell id="g5ewoE6nvLTf_8WwbgQn-56" value="" style="endArrow=none;html=1;rounded=1;curved=0;" parent="1" target="g5ewoE6nvLTf_8WwbgQn-5" edge="1">
          <mxGeometry width="50" height="50" relative="1" as="geometry">
            <mxPoint x="40" y="430" as="sourcePoint" />
            <mxPoint x="280" y="600" as="targetPoint" />
          </mxGeometry>
        </mxCell>
        <mxCell id="g5ewoE6nvLTf_8WwbgQn-57" value="" style="endArrow=none;html=1;rounded=1;edgeStyle=orthogonalEdgeStyle;curved=0;" parent="1" source="g5ewoE6nvLTf_8WwbgQn-11" target="rERKmSlaa6cY_zSiYhxS-4" edge="1">
          <mxGeometry width="50" height="50" relative="1" as="geometry">
            <mxPoint x="370" y="550" as="sourcePoint" />
            <mxPoint x="420" y="500" as="targetPoint" />
            <Array as="points">
              <mxPoint x="290" y="560" />
            </Array>
          </mxGeometry>
        </mxCell>
        <mxCell id="g5ewoE6nvLTf_8WwbgQn-58" value="" style="endArrow=none;html=1;rounded=1;curved=0;" parent="1" target="g5ewoE6nvLTf_8WwbgQn-10" edge="1">
          <mxGeometry width="50" height="50" relative="1" as="geometry">
            <mxPoint x="290" y="430" as="sourcePoint" />
            <mxPoint x="420" y="500" as="targetPoint" />
          </mxGeometry>
        </mxCell>
        <mxCell id="g5ewoE6nvLTf_8WwbgQn-59" value="" style="endArrow=none;html=1;rounded=1;edgeStyle=orthogonalEdgeStyle;curved=0;" parent="1" source="g5ewoE6nvLTf_8WwbgQn-3" target="rERKmSlaa6cY_zSiYhxS-5" edge="1">
          <mxGeometry width="50" height="50" relative="1" as="geometry">
            <mxPoint x="370" y="550" as="sourcePoint" />
            <mxPoint x="420" y="500" as="targetPoint" />
            <Array as="points">
              <mxPoint x="540" y="690" />
            </Array>
          </mxGeometry>
        </mxCell>
        <mxCell id="g5ewoE6nvLTf_8WwbgQn-60" value="" style="endArrow=none;html=1;rounded=0;" parent="1" target="g5ewoE6nvLTf_8WwbgQn-2" edge="1">
          <mxGeometry width="50" height="50" relative="1" as="geometry">
            <mxPoint x="540" y="560" as="sourcePoint" />
            <mxPoint x="420" y="500" as="targetPoint" />
          </mxGeometry>
        </mxCell>
        <mxCell id="g5ewoE6nvLTf_8WwbgQn-61" value="" style="endArrow=none;html=1;rounded=0;" parent="1" target="g5ewoE6nvLTf_8WwbgQn-1" edge="1">
          <mxGeometry width="50" height="50" relative="1" as="geometry">
            <mxPoint x="540" y="430" as="sourcePoint" />
            <mxPoint x="420" y="500" as="targetPoint" />
          </mxGeometry>
        </mxCell>
        <mxCell id="g5ewoE6nvLTf_8WwbgQn-62" value="" style="endArrow=none;html=1;rounded=1;edgeStyle=orthogonalEdgeStyle;curved=0;" parent="1" source="g5ewoE6nvLTf_8WwbgQn-14" target="rERKmSlaa6cY_zSiYhxS-6" edge="1">
          <mxGeometry width="50" height="50" relative="1" as="geometry">
            <mxPoint x="890" y="550" as="sourcePoint" />
            <mxPoint x="940" y="500" as="targetPoint" />
            <Array as="points">
              <mxPoint x="790" y="560" />
            </Array>
          </mxGeometry>
        </mxCell>
        <mxCell id="g5ewoE6nvLTf_8WwbgQn-66" value="" style="endArrow=none;html=1;rounded=0;" parent="1" target="g5ewoE6nvLTf_8WwbgQn-13" edge="1">
          <mxGeometry width="50" height="50" relative="1" as="geometry">
            <mxPoint x="790" y="430" as="sourcePoint" />
            <mxPoint x="940" y="500" as="targetPoint" />
          </mxGeometry>
        </mxCell>
        <mxCell id="g5ewoE6nvLTf_8WwbgQn-67" value="" style="endArrow=none;html=1;rounded=1;edgeStyle=orthogonalEdgeStyle;curved=0;" parent="1" source="g5ewoE6nvLTf_8WwbgQn-74" target="g5ewoE6nvLTf_8WwbgQn-17" edge="1">
          <mxGeometry width="50" height="50" relative="1" as="geometry">
            <mxPoint x="890" y="550" as="sourcePoint" />
            <mxPoint x="940" y="500" as="targetPoint" />
            <Array as="points">
              <mxPoint x="1040" y="820" />
            </Array>
          </mxGeometry>
        </mxCell>
        <mxCell id="g5ewoE6nvLTf_8WwbgQn-68" value="" style="endArrow=none;html=1;rounded=0;" parent="1" target="g5ewoE6nvLTf_8WwbgQn-19" edge="1">
          <mxGeometry width="50" height="50" relative="1" as="geometry">
            <mxPoint x="1040" y="560" as="sourcePoint" />
            <mxPoint x="940" y="500" as="targetPoint" />
          </mxGeometry>
        </mxCell>
        <mxCell id="g5ewoE6nvLTf_8WwbgQn-69" value="" style="endArrow=none;html=1;rounded=0;" parent="1" target="g5ewoE6nvLTf_8WwbgQn-18" edge="1">
          <mxGeometry width="50" height="50" relative="1" as="geometry">
            <mxPoint x="1040" y="430" as="sourcePoint" />
            <mxPoint x="940" y="500" as="targetPoint" />
          </mxGeometry>
        </mxCell>
        <mxCell id="g5ewoE6nvLTf_8WwbgQn-70" value="&lt;span style=&quot;font-size: 20px;&quot;&gt;Quản lý sản phẩm&lt;/span&gt;" style="rounded=1;whiteSpace=wrap;html=1;fillStyle=solid;" parent="1" vertex="1">
          <mxGeometry x="1240" y="280" width="200" height="60" as="geometry" />
        </mxCell>
        <mxCell id="g5ewoE6nvLTf_8WwbgQn-71" value="&lt;span style=&quot;font-size: 20px;&quot;&gt;Thêm, sửa, xóa món ăn&lt;/span&gt;" style="rounded=1;whiteSpace=wrap;html=1;" parent="1" vertex="1">
          <mxGeometry x="1330" y="380" width="120" height="100" as="geometry" />
        </mxCell>
        <mxCell id="g5ewoE6nvLTf_8WwbgQn-72" value="&lt;span style=&quot;font-size: 20px;&quot;&gt;Cập nhập giá và mô tả&lt;/span&gt;" style="rounded=1;whiteSpace=wrap;html=1;" parent="1" vertex="1">
          <mxGeometry x="1330" y="510" width="120" height="100" as="geometry" />
        </mxCell>
        <mxCell id="g5ewoE6nvLTf_8WwbgQn-73" value="&lt;span style=&quot;font-size: 20px;&quot;&gt;Quản lý danh mục&lt;/span&gt;" style="rounded=1;whiteSpace=wrap;html=1;" parent="1" vertex="1">
          <mxGeometry x="1330" y="640" width="120" height="100" as="geometry" />
        </mxCell>
        <mxCell id="g5ewoE6nvLTf_8WwbgQn-74" value="&lt;span style=&quot;font-size: 20px;&quot;&gt;Tình trạng đơn hàng được giao&lt;/span&gt;" style="rounded=1;whiteSpace=wrap;html=1;" parent="1" vertex="1">
          <mxGeometry x="1080" y="770" width="120" height="100" as="geometry" />
        </mxCell>
        <mxCell id="g5ewoE6nvLTf_8WwbgQn-75" value="" style="endArrow=none;html=1;rounded=0;edgeStyle=orthogonalEdgeStyle;" parent="1" source="g5ewoE6nvLTf_8WwbgQn-20" edge="1">
          <mxGeometry width="50" height="50" relative="1" as="geometry">
            <mxPoint x="960" y="660" as="sourcePoint" />
            <mxPoint x="1040" y="690" as="targetPoint" />
            <Array as="points">
              <mxPoint x="1040" y="680" />
            </Array>
          </mxGeometry>
        </mxCell>
        <mxCell id="g5ewoE6nvLTf_8WwbgQn-78" value="" style="endArrow=none;html=1;rounded=1;edgeStyle=orthogonalEdgeStyle;curved=0;" parent="1" edge="1">
          <mxGeometry width="50" height="50" relative="1" as="geometry">
            <mxPoint x="1330" y="690" as="sourcePoint" />
            <mxPoint x="1290" y="340" as="targetPoint" />
            <Array as="points">
              <mxPoint x="1290" y="690" />
            </Array>
          </mxGeometry>
        </mxCell>
        <mxCell id="g5ewoE6nvLTf_8WwbgQn-79" value="" style="endArrow=none;html=1;rounded=0;" parent="1" source="g5ewoE6nvLTf_8WwbgQn-71" edge="1">
          <mxGeometry width="50" height="50" relative="1" as="geometry">
            <mxPoint x="920" y="500" as="sourcePoint" />
            <mxPoint x="1290" y="430" as="targetPoint" />
          </mxGeometry>
        </mxCell>
        <mxCell id="g5ewoE6nvLTf_8WwbgQn-80" value="" style="endArrow=none;html=1;rounded=0;" parent="1" source="g5ewoE6nvLTf_8WwbgQn-72" edge="1">
          <mxGeometry width="50" height="50" relative="1" as="geometry">
            <mxPoint x="920" y="500" as="sourcePoint" />
            <mxPoint x="1290" y="560" as="targetPoint" />
          </mxGeometry>
        </mxCell>
        <mxCell id="g5ewoE6nvLTf_8WwbgQn-81" value="" style="endArrow=classic;html=1;rounded=0;edgeStyle=orthogonalEdgeStyle;endFill=1;" parent="1" target="g5ewoE6nvLTf_8WwbgQn-70" edge="1">
          <mxGeometry width="50" height="50" relative="1" as="geometry">
            <mxPoint x="1090" y="240" as="sourcePoint" />
            <mxPoint x="770" y="460" as="targetPoint" />
          </mxGeometry>
        </mxCell>
        <mxCell id="i9dd3xJPKFvuYLps4I6N-1" value="&lt;font style=&quot;font-size: 20px;&quot;&gt;&lt;font style=&quot;&quot;&gt;Quản&lt;/font&gt;&amp;nbsp;lý bán mì cay online&lt;/font&gt;" style="rounded=0;whiteSpace=wrap;html=1;" parent="1" vertex="1">
          <mxGeometry x="2057.5" y="120" width="245" height="60" as="geometry" />
        </mxCell>
        <mxCell id="i9dd3xJPKFvuYLps4I6N-2" value="&lt;span style=&quot;font-size: 20px;&quot;&gt;1.4. Lên kế hoạch triển khai&lt;/span&gt;" style="rounded=0;whiteSpace=wrap;html=1;" parent="1" vertex="1">
          <mxGeometry x="1580" y="680" width="200" height="60" as="geometry" />
        </mxCell>
        <mxCell id="i9dd3xJPKFvuYLps4I6N-3" value="&lt;span style=&quot;font-size: 20px;&quot;&gt;1.1. Mô tả yêu cầu&lt;/span&gt;" style="rounded=0;whiteSpace=wrap;html=1;" parent="1" vertex="1">
          <mxGeometry x="1580" y="370" width="200" height="60" as="geometry" />
        </mxCell>
        <mxCell id="i9dd3xJPKFvuYLps4I6N-4" value="&lt;span style=&quot;font-size: 20px;&quot;&gt;2. Xác định kiến trúc hệ thống&lt;/span&gt;" style="rounded=0;whiteSpace=wrap;html=1;" parent="1" vertex="1">
          <mxGeometry x="1830" y="260" width="200" height="60" as="geometry" />
        </mxCell>
        <mxCell id="i9dd3xJPKFvuYLps4I6N-6" value="&lt;span style=&quot;font-size: 20px;&quot;&gt;1.Quản lý dự án&lt;/span&gt;" style="rounded=0;whiteSpace=wrap;html=1;" parent="1" vertex="1">
          <mxGeometry x="1579" y="260" width="200" height="60" as="geometry" />
        </mxCell>
        <mxCell id="i9dd3xJPKFvuYLps4I6N-7" value="&lt;span style=&quot;font-size: 20px;&quot;&gt;1.2. Khảo sát yêu cầu&lt;/span&gt;" style="rounded=0;whiteSpace=wrap;html=1;" parent="1" vertex="1">
          <mxGeometry x="1580" y="480" width="200" height="60" as="geometry" />
        </mxCell>
        <mxCell id="i9dd3xJPKFvuYLps4I6N-9" value="&lt;span style=&quot;font-size: 20px;&quot;&gt;1.3. Xác định thông tin cơ bản&lt;/span&gt;" style="rounded=0;whiteSpace=wrap;html=1;" parent="1" vertex="1">
          <mxGeometry x="1580" y="580" width="200" height="60" as="geometry" />
        </mxCell>
        <mxCell id="i9dd3xJPKFvuYLps4I6N-11" value="&lt;span style=&quot;font-size: 20px;&quot;&gt;2.1. Phân tích yêu cầu&lt;/span&gt;" style="rounded=0;whiteSpace=wrap;html=1;" parent="1" vertex="1">
          <mxGeometry x="1830" y="370" width="200" height="60" as="geometry" />
        </mxCell>
        <mxCell id="i9dd3xJPKFvuYLps4I6N-12" value="&lt;span style=&quot;font-size: 20px;&quot;&gt;2.2. Phân tích chức năng&lt;/span&gt;" style="rounded=0;whiteSpace=wrap;html=1;" parent="1" vertex="1">
          <mxGeometry x="1830" y="480" width="200" height="60" as="geometry" />
        </mxCell>
        <mxCell id="i9dd3xJPKFvuYLps4I6N-15" value="&lt;span style=&quot;font-size: 20px;&quot;&gt;2.3. Xác định kiến trúc tổng quát&lt;/span&gt;" style="rounded=0;whiteSpace=wrap;html=1;" parent="1" vertex="1">
          <mxGeometry x="1830" y="580" width="200" height="60" as="geometry" />
        </mxCell>
        <mxCell id="i9dd3xJPKFvuYLps4I6N-16" value="&lt;span style=&quot;font-size: 20px;&quot;&gt;2.4. Phân rã bộ phận kiến trúc&lt;/span&gt;" style="rounded=0;whiteSpace=wrap;html=1;" parent="1" vertex="1">
          <mxGeometry x="1829" y="680" width="200" height="60" as="geometry" />
        </mxCell>
        <mxCell id="i9dd3xJPKFvuYLps4I6N-17" value="&lt;span style=&quot;font-size: 20px;&quot;&gt;3. Cài đặt chương trình&lt;/span&gt;" style="rounded=0;whiteSpace=wrap;html=1;" parent="1" vertex="1">
          <mxGeometry x="2080" y="260" width="200" height="60" as="geometry" />
        </mxCell>
        <mxCell id="i9dd3xJPKFvuYLps4I6N-18" value="&lt;span style=&quot;font-size: 20px;&quot;&gt;3.1. Lựa chọn ngôn ngữ&lt;/span&gt;" style="rounded=0;whiteSpace=wrap;html=1;" parent="1" vertex="1">
          <mxGeometry x="2080" y="370" width="200" height="60" as="geometry" />
        </mxCell>
        <mxCell id="i9dd3xJPKFvuYLps4I6N-19" value="&lt;span style=&quot;font-size: 20px;&quot;&gt;3.2. Thiết kế CSDL&lt;/span&gt;" style="rounded=0;whiteSpace=wrap;html=1;" parent="1" vertex="1">
          <mxGeometry x="2080" y="480" width="200" height="60" as="geometry" />
        </mxCell>
        <mxCell id="i9dd3xJPKFvuYLps4I6N-20" value="&lt;span style=&quot;font-size: 20px;&quot;&gt;3.3. Xây dựng back-end&lt;/span&gt;" style="rounded=0;whiteSpace=wrap;html=1;" parent="1" vertex="1">
          <mxGeometry x="2080" y="580" width="200" height="60" as="geometry" />
        </mxCell>
        <mxCell id="i9dd3xJPKFvuYLps4I6N-21" value="&lt;span style=&quot;font-size: 20px;&quot;&gt;3.4. Xây dựng front-end&lt;/span&gt;" style="rounded=0;whiteSpace=wrap;html=1;" parent="1" vertex="1">
          <mxGeometry x="2080" y="680" width="200" height="60" as="geometry" />
        </mxCell>
        <mxCell id="i9dd3xJPKFvuYLps4I6N-22" value="&lt;span style=&quot;font-size: 20px;&quot;&gt;4. Kiểm thử&lt;/span&gt;" style="rounded=0;whiteSpace=wrap;html=1;" parent="1" vertex="1">
          <mxGeometry x="2330" y="260" width="200" height="60" as="geometry" />
        </mxCell>
        <mxCell id="i9dd3xJPKFvuYLps4I6N-23" value="&lt;span style=&quot;font-size: 20px;&quot;&gt;4.1. Kiểm tra tính đúng đắn của dữ liệu&lt;/span&gt;" style="rounded=0;whiteSpace=wrap;html=1;" parent="1" vertex="1">
          <mxGeometry x="2330" y="370" width="200" height="60" as="geometry" />
        </mxCell>
        <mxCell id="i9dd3xJPKFvuYLps4I6N-24" value="&lt;span style=&quot;font-size: 20px;&quot;&gt;4.2. Kiểm thử chức năng&lt;/span&gt;" style="rounded=0;whiteSpace=wrap;html=1;" parent="1" vertex="1">
          <mxGeometry x="2330" y="480" width="200" height="60" as="geometry" />
        </mxCell>
        <mxCell id="i9dd3xJPKFvuYLps4I6N-25" value="&lt;span style=&quot;font-size: 20px;&quot;&gt;4.3. Kiểm thử tính ổn định của hệ thống&lt;/span&gt;" style="rounded=0;whiteSpace=wrap;html=1;" parent="1" vertex="1">
          <mxGeometry x="2330" y="580" width="200" height="60" as="geometry" />
        </mxCell>
        <mxCell id="i9dd3xJPKFvuYLps4I6N-26" value="&lt;span style=&quot;font-size: 20px;&quot;&gt;5. Viết hướng dẫn&lt;/span&gt;" style="rounded=0;whiteSpace=wrap;html=1;" parent="1" vertex="1">
          <mxGeometry x="2580" y="260" width="200" height="60" as="geometry" />
        </mxCell>
        <mxCell id="i9dd3xJPKFvuYLps4I6N-27" value="&lt;span style=&quot;font-size: 20px;&quot;&gt;5.1. Viết tài liệu đặc tả kiến trúc&lt;/span&gt;" style="rounded=0;whiteSpace=wrap;html=1;" parent="1" vertex="1">
          <mxGeometry x="2580" y="370" width="200" height="60" as="geometry" />
        </mxCell>
        <mxCell id="i9dd3xJPKFvuYLps4I6N-28" value="&lt;span style=&quot;font-size: 20px;&quot;&gt;5.2. Viết hướng dẫn sử dụng phần mềm&lt;/span&gt;" style="rounded=0;whiteSpace=wrap;html=1;" parent="1" vertex="1">
          <mxGeometry x="2580" y="480" width="200" height="60" as="geometry" />
        </mxCell>
        <mxCell id="i9dd3xJPKFvuYLps4I6N-31" value="" style="endArrow=classic;html=1;rounded=0;edgeStyle=orthogonalEdgeStyle;" parent="1" source="i9dd3xJPKFvuYLps4I6N-1" target="i9dd3xJPKFvuYLps4I6N-6" edge="1">
          <mxGeometry width="50" height="50" relative="1" as="geometry">
            <mxPoint x="2140" y="470" as="sourcePoint" />
            <mxPoint x="2190" y="420" as="targetPoint" />
            <Array as="points">
              <mxPoint x="2180" y="220" />
              <mxPoint x="1680" y="220" />
            </Array>
          </mxGeometry>
        </mxCell>
        <mxCell id="i9dd3xJPKFvuYLps4I6N-32" value="" style="endArrow=classic;html=1;rounded=0;edgeStyle=orthogonalEdgeStyle;" parent="1" source="i9dd3xJPKFvuYLps4I6N-1" target="i9dd3xJPKFvuYLps4I6N-4" edge="1">
          <mxGeometry width="50" height="50" relative="1" as="geometry">
            <mxPoint x="2068" y="160" as="sourcePoint" />
            <mxPoint x="1690" y="270" as="targetPoint" />
            <Array as="points">
              <mxPoint x="2180" y="220" />
              <mxPoint x="1930" y="220" />
            </Array>
          </mxGeometry>
        </mxCell>
        <mxCell id="i9dd3xJPKFvuYLps4I6N-33" value="" style="endArrow=classic;html=1;rounded=0;edgeStyle=orthogonalEdgeStyle;" parent="1" source="i9dd3xJPKFvuYLps4I6N-1" target="i9dd3xJPKFvuYLps4I6N-22" edge="1">
          <mxGeometry width="50" height="50" relative="1" as="geometry">
            <mxPoint x="2180" y="180" as="sourcePoint" />
            <mxPoint x="1930" y="260" as="targetPoint" />
            <Array as="points">
              <mxPoint x="2180" y="220" />
              <mxPoint x="2430" y="220" />
            </Array>
          </mxGeometry>
        </mxCell>
        <mxCell id="i9dd3xJPKFvuYLps4I6N-34" value="" style="endArrow=classic;html=1;rounded=0;edgeStyle=orthogonalEdgeStyle;" parent="1" source="i9dd3xJPKFvuYLps4I6N-1" target="i9dd3xJPKFvuYLps4I6N-17" edge="1">
          <mxGeometry width="50" height="50" relative="1" as="geometry">
            <mxPoint x="2180" y="180" as="sourcePoint" />
            <mxPoint x="1930" y="260" as="targetPoint" />
            <Array as="points" />
          </mxGeometry>
        </mxCell>
        <mxCell id="i9dd3xJPKFvuYLps4I6N-35" value="" style="endArrow=classic;html=1;rounded=0;edgeStyle=orthogonalEdgeStyle;" parent="1" source="i9dd3xJPKFvuYLps4I6N-1" target="i9dd3xJPKFvuYLps4I6N-22" edge="1">
          <mxGeometry width="50" height="50" relative="1" as="geometry">
            <mxPoint x="2180" y="180" as="sourcePoint" />
            <mxPoint x="2430" y="260" as="targetPoint" />
            <Array as="points">
              <mxPoint x="2180" y="220" />
              <mxPoint x="2430" y="220" />
            </Array>
          </mxGeometry>
        </mxCell>
        <mxCell id="i9dd3xJPKFvuYLps4I6N-36" value="" style="endArrow=classic;html=1;rounded=0;edgeStyle=orthogonalEdgeStyle;" parent="1" source="i9dd3xJPKFvuYLps4I6N-1" target="i9dd3xJPKFvuYLps4I6N-26" edge="1">
          <mxGeometry width="50" height="50" relative="1" as="geometry">
            <mxPoint x="2180" y="180" as="sourcePoint" />
            <mxPoint x="2430" y="260" as="targetPoint" />
            <Array as="points">
              <mxPoint x="2180" y="220" />
              <mxPoint x="2680" y="220" />
            </Array>
          </mxGeometry>
        </mxCell>
        <mxCell id="i9dd3xJPKFvuYLps4I6N-38" value="" style="endArrow=classic;html=1;rounded=0;" parent="1" source="i9dd3xJPKFvuYLps4I6N-6" target="i9dd3xJPKFvuYLps4I6N-3" edge="1">
          <mxGeometry width="50" height="50" relative="1" as="geometry">
            <mxPoint x="2140" y="470" as="sourcePoint" />
            <mxPoint x="2190" y="420" as="targetPoint" />
          </mxGeometry>
        </mxCell>
        <mxCell id="i9dd3xJPKFvuYLps4I6N-39" value="" style="endArrow=classic;html=1;rounded=0;" parent="1" source="i9dd3xJPKFvuYLps4I6N-4" target="i9dd3xJPKFvuYLps4I6N-11" edge="1">
          <mxGeometry width="50" height="50" relative="1" as="geometry">
            <mxPoint x="1680" y="320" as="sourcePoint" />
            <mxPoint x="1680" y="370" as="targetPoint" />
          </mxGeometry>
        </mxCell>
        <mxCell id="i9dd3xJPKFvuYLps4I6N-40" value="" style="endArrow=classic;html=1;rounded=0;" parent="1" source="i9dd3xJPKFvuYLps4I6N-17" target="i9dd3xJPKFvuYLps4I6N-18" edge="1">
          <mxGeometry width="50" height="50" relative="1" as="geometry">
            <mxPoint x="2140" y="470" as="sourcePoint" />
            <mxPoint x="2180" y="410" as="targetPoint" />
          </mxGeometry>
        </mxCell>
        <mxCell id="i9dd3xJPKFvuYLps4I6N-41" value="" style="endArrow=classic;html=1;rounded=0;" parent="1" source="i9dd3xJPKFvuYLps4I6N-22" target="i9dd3xJPKFvuYLps4I6N-23" edge="1">
          <mxGeometry width="50" height="50" relative="1" as="geometry">
            <mxPoint x="2140" y="470" as="sourcePoint" />
            <mxPoint x="2190" y="420" as="targetPoint" />
          </mxGeometry>
        </mxCell>
        <mxCell id="i9dd3xJPKFvuYLps4I6N-42" value="" style="endArrow=classic;html=1;rounded=0;" parent="1" source="i9dd3xJPKFvuYLps4I6N-26" target="i9dd3xJPKFvuYLps4I6N-27" edge="1">
          <mxGeometry width="50" height="50" relative="1" as="geometry">
            <mxPoint x="2140" y="470" as="sourcePoint" />
            <mxPoint x="2190" y="420" as="targetPoint" />
          </mxGeometry>
        </mxCell>
        <mxCell id="i9dd3xJPKFvuYLps4I6N-43" value="" style="endArrow=classic;html=1;rounded=0;" parent="1" source="i9dd3xJPKFvuYLps4I6N-27" target="i9dd3xJPKFvuYLps4I6N-28" edge="1">
          <mxGeometry width="50" height="50" relative="1" as="geometry">
            <mxPoint x="2140" y="470" as="sourcePoint" />
            <mxPoint x="2190" y="420" as="targetPoint" />
          </mxGeometry>
        </mxCell>
        <mxCell id="i9dd3xJPKFvuYLps4I6N-44" value="" style="endArrow=classic;html=1;rounded=0;" parent="1" source="i9dd3xJPKFvuYLps4I6N-24" target="i9dd3xJPKFvuYLps4I6N-25" edge="1">
          <mxGeometry width="50" height="50" relative="1" as="geometry">
            <mxPoint x="2140" y="470" as="sourcePoint" />
            <mxPoint x="2190" y="420" as="targetPoint" />
          </mxGeometry>
        </mxCell>
        <mxCell id="i9dd3xJPKFvuYLps4I6N-45" value="" style="endArrow=classic;html=1;rounded=0;" parent="1" source="i9dd3xJPKFvuYLps4I6N-23" target="i9dd3xJPKFvuYLps4I6N-24" edge="1">
          <mxGeometry width="50" height="50" relative="1" as="geometry">
            <mxPoint x="2140" y="470" as="sourcePoint" />
            <mxPoint x="2190" y="420" as="targetPoint" />
          </mxGeometry>
        </mxCell>
        <mxCell id="i9dd3xJPKFvuYLps4I6N-46" value="" style="endArrow=classic;html=1;rounded=0;" parent="1" source="i9dd3xJPKFvuYLps4I6N-18" target="i9dd3xJPKFvuYLps4I6N-19" edge="1">
          <mxGeometry width="50" height="50" relative="1" as="geometry">
            <mxPoint x="2140" y="470" as="sourcePoint" />
            <mxPoint x="2190" y="420" as="targetPoint" />
          </mxGeometry>
        </mxCell>
        <mxCell id="i9dd3xJPKFvuYLps4I6N-47" value="" style="endArrow=classic;html=1;rounded=0;" parent="1" source="i9dd3xJPKFvuYLps4I6N-12" target="i9dd3xJPKFvuYLps4I6N-15" edge="1">
          <mxGeometry width="50" height="50" relative="1" as="geometry">
            <mxPoint x="2140" y="470" as="sourcePoint" />
            <mxPoint x="2190" y="420" as="targetPoint" />
          </mxGeometry>
        </mxCell>
        <mxCell id="i9dd3xJPKFvuYLps4I6N-48" value="" style="endArrow=classic;html=1;rounded=0;" parent="1" source="i9dd3xJPKFvuYLps4I6N-11" target="i9dd3xJPKFvuYLps4I6N-12" edge="1">
          <mxGeometry width="50" height="50" relative="1" as="geometry">
            <mxPoint x="2140" y="470" as="sourcePoint" />
            <mxPoint x="2190" y="420" as="targetPoint" />
          </mxGeometry>
        </mxCell>
        <mxCell id="i9dd3xJPKFvuYLps4I6N-49" value="" style="endArrow=classic;html=1;rounded=0;" parent="1" source="i9dd3xJPKFvuYLps4I6N-3" target="i9dd3xJPKFvuYLps4I6N-7" edge="1">
          <mxGeometry width="50" height="50" relative="1" as="geometry">
            <mxPoint x="2140" y="470" as="sourcePoint" />
            <mxPoint x="2190" y="420" as="targetPoint" />
          </mxGeometry>
        </mxCell>
        <mxCell id="i9dd3xJPKFvuYLps4I6N-50" value="" style="endArrow=classic;html=1;rounded=0;" parent="1" source="i9dd3xJPKFvuYLps4I6N-7" target="i9dd3xJPKFvuYLps4I6N-9" edge="1">
          <mxGeometry width="50" height="50" relative="1" as="geometry">
            <mxPoint x="2140" y="470" as="sourcePoint" />
            <mxPoint x="2190" y="420" as="targetPoint" />
          </mxGeometry>
        </mxCell>
        <mxCell id="i9dd3xJPKFvuYLps4I6N-51" value="" style="endArrow=classic;html=1;rounded=0;" parent="1" source="i9dd3xJPKFvuYLps4I6N-19" target="i9dd3xJPKFvuYLps4I6N-20" edge="1">
          <mxGeometry width="50" height="50" relative="1" as="geometry">
            <mxPoint x="2140" y="470" as="sourcePoint" />
            <mxPoint x="2190" y="420" as="targetPoint" />
          </mxGeometry>
        </mxCell>
        <mxCell id="i9dd3xJPKFvuYLps4I6N-52" value="" style="endArrow=classic;html=1;rounded=0;" parent="1" source="i9dd3xJPKFvuYLps4I6N-20" target="i9dd3xJPKFvuYLps4I6N-21" edge="1">
          <mxGeometry width="50" height="50" relative="1" as="geometry">
            <mxPoint x="2140" y="470" as="sourcePoint" />
            <mxPoint x="2120" y="850" as="targetPoint" />
          </mxGeometry>
        </mxCell>
        <mxCell id="i9dd3xJPKFvuYLps4I6N-53" value="" style="endArrow=classic;html=1;rounded=0;" parent="1" source="i9dd3xJPKFvuYLps4I6N-15" target="i9dd3xJPKFvuYLps4I6N-16" edge="1">
          <mxGeometry width="50" height="50" relative="1" as="geometry">
            <mxPoint x="2140" y="470" as="sourcePoint" />
            <mxPoint x="2190" y="420" as="targetPoint" />
          </mxGeometry>
        </mxCell>
        <mxCell id="i9dd3xJPKFvuYLps4I6N-54" value="" style="endArrow=classic;html=1;rounded=0;" parent="1" source="i9dd3xJPKFvuYLps4I6N-9" target="i9dd3xJPKFvuYLps4I6N-2" edge="1">
          <mxGeometry width="50" height="50" relative="1" as="geometry">
            <mxPoint x="2140" y="620" as="sourcePoint" />
            <mxPoint x="2190" y="570" as="targetPoint" />
          </mxGeometry>
        </mxCell>
        <mxCell id="lIJro4WaBCwHb4s3iNFm-1" value="" style="endArrow=classic;html=1;rounded=1;edgeStyle=orthogonalEdgeStyle;curved=0;" edge="1" parent="1" target="rERKmSlaa6cY_zSiYhxS-2">
          <mxGeometry width="50" height="50" relative="1" as="geometry">
            <mxPoint x="120" y="240" as="sourcePoint" />
            <mxPoint x="380" y="510" as="targetPoint" />
            <Array as="points">
              <mxPoint x="80" y="240" />
            </Array>
          </mxGeometry>
        </mxCell>
      </root>
    </mxGraphModel>
  </diagram>
</mxfile>
